<?xml version="1.0" standalone="no"?>
<!DOCTYPE svg PUBLIC "-//W3C//DTD SVG 1.1//EN" "http://www.w3.org/Graphics/SVG/1.1/DTD/svg11.dtd">
<svg xmlns:inkscape="http://www.inkscape.org/namespaces/inkscape" xmlns:sodipodi="http://sodipodi.sourceforge.net/DTD/sodipodi-0.dtd" xmlns:xlink="http://www.w3.org/1999/xlink" xmlns="http://www.w3.org/2000/svg" xmlns:svg="http://www.w3.org/2000/svg" width="508" height="285.75" viewBox="0 0 508 285.75001" version="1.1" id="svg1" xml:space="preserve" sodipodi:docname="Logotipo.svg" inkscape:version="1.4.2 (f4327f4, 2025-05-13)"><sodipodi:namedview id="namedview1" pagecolor="#ffffff" bordercolor="#000000" borderopacity="0.25" inkscape:showpageshadow="2" inkscape:pageopacity="0.0" inkscape:pagecheckerboard="0" inkscape:deskcolor="#d1d1d1" inkscape:document-units="px" showguides="true" inkscape:zoom="0.3535534" inkscape:cx="864.08446" inkscape:cy="448.30569" inkscape:window-width="1920" inkscape:window-height="1046" inkscape:window-x="-11" inkscape:window-y="-11" inkscape:window-maximized="1" inkscape:current-layer="svg1"/><defs id="defs1"><inkscape:path-effect effect="fillet_chamfer" id="path-effect12" is_visible="true" lpeversion="1" nodesatellites_param="F,0,0,1,0,2.1661937,0,1 @ F,0,0,1,0,2.3758336,0,1 @ F,0,0,1,0,1.9564492,0,1 @ F,0,0,1,0,2.6198595,0,1 @ F,0,0,1,0,3.4368758,0,1 @ F,0,0,1,0,3.0911996,0,1 @ F,0,0,1,0,2.752995,0,1 @ F,0,0,1,0,2.147851,0,1 @ F,0,0,1,0,1.9877683,0,1 @ F,0,0,1,0,2.1515205,0,1 @ F,0,0,1,0,3.4995504,0,1 @ F,0,0,1,0,3.0976893,0,1" radius="0" unit="px" method="auto" mode="F" chamfer_steps="1" flexible="false" use_knot_distance="true" apply_no_radius="true" apply_with_radius="true" only_selected="false" hide_knots="false"/><inkscape:path-effect effect="fillet_chamfer" id="path-effect3" is_visible="true" lpeversion="1" nodesatellites_param="F,0,1,1,0,3.2809653,0,1 @ F,0,1,1,0,3.2809653,0,1 @ F,0,0,1,0,0,0,1 @ F,0,0,1,0,0,0,1 @ F,0,0,1,0,3.2809653,0,1 @ F,0,0,1,0,4.1142713,0,1 @ F,0,0,1,0,0,0,1 @ F,0,0,1,0,0,0,1" radius="0" unit="px" method="auto" mode="F" chamfer_steps="1" flexible="false" use_knot_distance="true" apply_no_radius="true" apply_with_radius="true" only_selected="false" hide_knots="false"/><inkscape:path-effect effect="fillet_chamfer" id="path-effect1" is_visible="true" lpeversion="1" nodesatellites_param="F,0,0,1,0,4.4874697,0,1 @ F,0,0,1,0,6.3354423,0,1 @ F,0,0,1,0,5.176491,0,1 @ F,0,0,1,0,2.9798704,0,1 @ F,0,0,1,0,3.6016403,0,1 @ F,0,0,1,0,2.38125,0,1 @ F,0,0,1,0,2.4738547,0,1 @ F,0,0,1,0,4.0084376,0,1 @ F,0,0,1,0,4.722813,0,1 @ F,0,1,1,0,2.38125,0,1 @ F,0,0,1,0,2.123281,0,1 @ F,0,0,1,0,3.904488,0,1" radius="0" unit="px" method="auto" mode="F" chamfer_steps="1" flexible="false" use_knot_distance="true" apply_no_radius="true" apply_with_radius="true" only_selected="false" hide_knots="false"/><inkscape:path-effect effect="fillet_chamfer" id="path-effect11" is_visible="true" lpeversion="1" nodesatellites_param="F,0,1,1,0,0.55129914,0,1 @ F,0,0,1,0,1.0867111,0,1 @ F,0,0,1,0,0.78298152,0,1 @ F,0,0,1,0,0.88265397,0,1 @ F,0,0,1,0,0.67479228,0,1 @ F,0,0,1,0,1.6400714,0,1 @ F,0,0,1,0,0.52911019,0,1 @ F,0,0,1,0,0.35195521,0,1 @ F,0,0,1,0,0.93371086,0,1 @ F,0,0,1,0,1.7394256,0,1 @ F,0,0,1,0,0.88012991,0,1 @ F,0,0,1,0,2.3573169,0,1 @ F,0,0,1,0,0.99133523,0,1 @ F,0,0,1,0,1.3283117,0,1 @ F,0,0,1,0,1.6966397,0,1" radius="0" unit="px" method="auto" mode="F" chamfer_steps="1" flexible="false" use_knot_distance="true" apply_no_radius="true" apply_with_radius="true" only_selected="false" hide_knots="false"/><inkscape:path-effect effect="fillet_chamfer" id="path-effect10" is_visible="true" lpeversion="1" nodesatellites_param="F,0,0,1,0,1.1396854,0,1 @ F,0,0,1,0,1.0638387,0,1 @ F,0,0,1,0,3.8311591,0,1 @ F,0,0,1,0,4.2090728,0,1 @ F,0,0,1,0,1.0699153,0,1 @ F,0,0,1,0,1.1926903,0,1 @ F,0,0,1,0,11.144192,0,1 @ F,0,0,1,0,10.582059,0,1" radius="0" unit="px" method="auto" mode="F" chamfer_steps="1" flexible="false" use_knot_distance="true" apply_no_radius="true" apply_with_radius="true" only_selected="false" hide_knots="false"/><inkscape:path-effect effect="fillet_chamfer" id="path-effect9" is_visible="true" lpeversion="1" nodesatellites_param="F,0,0,1,0,1.4504448,0,1 @ F,0,0,1,0,1.0018224,0,1 @ F,0,0,1,0,0.74092079,0,1 @ F,0,0,1,0,0.55077897,0,1 @ F,0,0,1,0,1.6765234,0,1 @ F,0,0,1,0,1.6765234,0,1 @ F,0,0,1,0,0.43657533,0,1 @ F,0,0,1,0,0.53650352,0,1 @ F,0,0,1,0,1.5180655,0,1 @ F,0,0,1,0,1.4457319,0,1 @ F,0,0,1,0,3.450672,0,1 @ F,0,0,1,0,4.1902876,0,1" radius="0" unit="px" method="auto" mode="F" chamfer_steps="1" flexible="false" use_knot_distance="true" apply_no_radius="true" apply_with_radius="true" only_selected="false" hide_knots="false"/><inkscape:path-effect effect="fillet_chamfer" id="path-effect8" is_visible="true" lpeversion="1" nodesatellites_param="F,0,0,1,0,5.4682831,0,1 @ F,0,0,1,0,5.8450829,0,1 @ F,0,0,1,0,0,0,1 @ F,0,0,1,0,0,0,1 @ F,0,0,1,0,0,0,1 @ F,0,0,1,0,5.1843134,0,1 @ F,0,0,1,0,5.1538793,0,1 @ F,0,0,1,0,0,0,1 @ F,0,0,1,0,0,0,1 @ F,0,0,1,0,0,0,1" radius="0" unit="px" method="auto" mode="F" chamfer_steps="1" flexible="false" use_knot_distance="true" apply_no_radius="true" apply_with_radius="true" only_selected="false" hide_knots="false"/><inkscape:path-effect effect="fillet_chamfer" id="path-effect7" is_visible="true" lpeversion="1" nodesatellites_param="F,0,0,1,0,5.137554,0,1 @ F,0,0,1,0,6.2772977,0,1 @ F,0,0,1,0,0,0,1 @ F,0,0,1,0,0,0,1 @ F,0,0,1,0,0,0,1 @ F,0,0,1,0,5.2172167,0,1 @ F,0,0,1,0,5.2172167,0,1 @ F,0,0,1,0,0,0,1 @ F,0,0,1,0,0.3254206,0,1 @ F,0,0,1,0,5.1675279,0,1" radius="0" unit="px" method="auto" mode="F" chamfer_steps="1" flexible="false" use_knot_distance="true" apply_no_radius="true" apply_with_radius="true" only_selected="false" hide_knots="false"/><inkscape:path-effect effect="fillet_chamfer" id="path-effect6" is_visible="true" lpeversion="1" nodesatellites_param="F,0,0,1,0,0,0,1 @ F,0,0,1,0,0,0,1 @ F,0,0,1,0,0,0,1 @ F,0,0,1,0,0,0,1 @ F,0,0,1,0,0,0,1 @ F,0,0,1,0,0,0,1 @ F,0,0,1,0,0,0,1 @ F,0,0,1,0,0,0,1 @ F,0,0,1,0,0,0,1 @ F,0,0,1,0,0,0,1" radius="0" unit="px" method="auto" mode="F" chamfer_steps="1" flexible="false" use_knot_distance="true" apply_no_radius="true" apply_with_radius="true" only_selected="false" hide_knots="false"/><inkscape:path-effect effect="fillet_chamfer" id="path-effect5" is_visible="true" lpeversion="1" nodesatellites_param="F,0,0,1,0,3.3432304,0,1 @ F,0,0,1,0,5.6126602,0,1 @ F,0,0,1,0,0,0,1 @ F,0,0,1,0,0,0,1 @ F,0,0,1,0,0,0,1 @ F,0,0,1,0,0,0,1 @ F,0,0,1,0,0,0,1 @ F,0,0,1,0,0,0,1 @ F,0,0,1,0,0,0,1 @ F,0,0,1,0,3.3432304,0,1" radius="0" unit="px" method="auto" mode="F" chamfer_steps="1" flexible="false" use_knot_distance="true" apply_no_radius="true" apply_with_radius="true" only_selected="false" hide_knots="false"/><inkscape:path-effect effect="fillet_chamfer" id="path-effect4" is_visible="true" lpeversion="1" nodesatellites_param="F,0,0,1,0,5.6475072,0,1 @ F,0,1,1,0,5.6475072,0,1 @ F,0,0,1,0,0,0,1 @ F,0,0,1,0,5.60884,0,1 @ F,0,0,1,0,5.3543619,0,1 @ F,0,0,1,0,0,0,1 @ F,0,0,1,0,5.3752833,0,1 @ F,0,0,1,0,5.8058437,0,1 @ F,0,0,1,0,5.3543619,0,1" radius="0" unit="px" method="auto" mode="F" chamfer_steps="1" flexible="false" use_knot_distance="true" apply_no_radius="true" apply_with_radius="true" only_selected="false" hide_knots="false"/><linearGradient id="linearGradient3" inkscape:collect="always"><stop style="stop-color:#000000;stop-opacity:1;" offset="0" id="stop3"/><stop style="stop-color:#000000;stop-opacity:0;" offset="1" id="stop4"/></linearGradient><linearGradient inkscape:collect="always" xlink:href="#linearGradient3" id="linearGradient4" x1="91.082718" y1="147.29376" x2="405.96866" y2="147.29376" gradientUnits="userSpaceOnUse" gradientTransform="matrix(1.733735,0,0,1.2405976,-157.71928,-52.107446)"/></defs><rect style="fill:#1e074b;fill-opacity:1;stroke:url(#linearGradient4);stroke-width:0.388033" id="rect3" width="507.61197" height="285.36197" x="0.19401656" y="0.19401656"/><g id="g12" transform="matrix(0.75871788,0,0,0.75871788,53.360174,24.689049)"/><g inkscape:label="Capa 1" inkscape:groupmode="layer" id="layer1"/><g id="g13" transform="matrix(1.3266811,0,0,1.3266811,-55.974356,-34.875617)"><path style="fill:#fefffe;fill-opacity:1;stroke-width:0.264583" d="m 147.01944,176.11255 a 5.6206562,5.6206562 135.17899 0 0 5.64951,-5.61432 l 0.041,-22.00089 26.04033,25.93989 a 6.0685977,6.0685977 2.1439494 0 0 8.23224,0.30819 4.9590959,4.9590959 92.123561 0 0 0.26934,-7.26357 l -26.91373,-27.05184 22.91577,-0.1054 a 5.3995804,5.3995804 134.86568 0 0 5.37475,-5.4 l 0,-0.009 a 5.790413,5.790413 44.918639 0 0 -5.80634,-5.78987 l -36.1444,0.0994 a 5.363556,5.363556 134.89155 0 0 -5.3488,5.36909 l 0.0371,35.83762 a 5.6867132,5.6867132 45.138888 0 0 5.65326,5.68072 z" id="path4" sodipodi:nodetypes="cccccccccc" inkscape:original-d="m 141.37203,176.07933 11.2864,0.0664 0.0515,-27.64839 30.01403,29.89827 8.30428,-7.11798 -30.69013,-30.84762 28.291,-0.13012 -0.001,-11.19016 -47.30456,0.13012 z" inkscape:path-effect="#path-effect4" transform="matrix(1.7540911,0,0,1.7540911,-180.89333,-123.72282)"/><path style="fill:#fefffe;fill-opacity:1;stroke-width:0.264583" d="m 141.39227,118.00212 v 0.0439 a 5.8187798,5.8187798 44.870793 0 0 5.84502,5.81872 l 38.15294,-0.17208 c 10.99259,0.35166 11.59329,21.5523 0.0889,21.85484 l -12.0447,0.10558 29.66358,29.22598 a 5.2696889,5.2696889 0.04216205 0 0 7.39135,0.005 l 0.002,-0.002 c 2.03055,-1.99472 2.04502,-5.2434 0.0295,-7.25332 -5.3926,-5.37765 -14.86682,-14.79691 -14.90841,-14.63702 14.0614,-3.03573 14.30494,-39.98063 -8.63975,-40.45859 l -33.87307,7.4e-4 -6.23958,-4e-5 a 5.4682504,5.4682504 135.00017 0 0 -5.46828,5.46825 z" id="path5" sodipodi:nodetypes="ccccccccccc" inkscape:original-d="m 141.39227,112.53384 v 11.35731 l 43.99796,-0.19844 c 10.99259,0.35166 11.59329,21.5523 0.0889,21.85484 l -12.0447,0.10558 33.35658,32.8645 7.37749,-7.24729 c 0,0 -18.4974,-18.50213 -18.55555,-18.27858 14.0614,-3.03573 14.30494,-39.98063 -8.63975,-40.45859 l -33.87307,7.4e-4 z" inkscape:path-effect="#path-effect8" transform="matrix(1.7540911,0,0,1.7540911,-180.89333,-123.72282)"/><path style="fill:#fefffe;fill-opacity:1;stroke-width:0.264583" d="m 230.68299,109.91459 h -36.69762 a 6.3354423,6.3354423 135 0 0 -6.33544,6.33544 v 41.25916 a 5.176491,5.176491 45 0 0 5.17649,5.17649 h 39.6398 a 2.9798704,2.9798704 135 0 0 2.97987,-2.97987 v -4.69636 a 3.6016403,3.6016403 45 0 0 -3.60164,-3.60164 h -27.38768 a 2.38125,2.38125 45 0 1 -2.38125,-2.38125 v -4.80219 a 2.4738547,2.4738547 135 0 1 2.47385,-2.47385 h 20.90209 a 4.0084376,4.0084376 135 0 0 4.00844,-4.00844 v -2.24896 a 4.722813,4.722813 45 0 0 -4.72281,-4.72281 h -20.28032 a 2.38125,2.38125 45 0 1 -2.38125,-2.38125 v -5.02047 a 2.123281,2.123281 135 0 1 2.12328,-2.12328 h 27.11129 a 3.8893142,3.8893142 134.88845 0 0 3.88929,-3.90446 l -0.0114,-2.93882 a 4.5049772,4.5049772 44.88845 0 0 -4.50494,-4.48744 z" id="path1" inkscape:path-effect="#path-effect1" inkscape:original-d="m 235.17046,109.91459 h -47.52053 v 52.77109 h 47.79616 v -11.27787 h -33.37057 v -9.65729 h 27.38438 v -10.98021 h -27.38438 v -9.525 h 33.13906 z"/><path style="fill:#fefffe;fill-opacity:1;stroke:none;stroke-width:0.264583;stroke-dasharray:none;stroke-opacity:1" d="m 242.09274,115.05953 v 42.1885 c 0.0797,6.37402 12.01732,6.24367 15.71545,6.26747 h 18.89595 c 8.42474,-0.004 19.86988,-10.44189 19.87817,-19.87817 v -13.89134 c -0.31229,-8.9547 -10.31307,-19.67645 -17.53957,-19.64431 h -24.69569 c -1.98154,0.003 -12.27628,0.54277 -12.25431,4.95785 z" id="path2" sodipodi:nodetypes="ccccccccc"/><path style="fill:#fefffe;fill-opacity:1;stroke:none;stroke-width:0.264583;stroke-opacity:1" d="m 306.06353,110.09974 h 8.02322 a 3.2809653,3.2809653 45 0 1 3.28097,3.28097 v 31.75332 c -0.15471,10.20675 23.32648,9.41652 23.4143,0 V 113.8768 a 3.2809653,3.2809653 135 0 1 3.28097,-3.28097 l 6.89358,0 a 4.1142713,4.1142713 45 0 1 4.11427,4.11427 v 34.38261 c 1.3e-4,19.90557 -52.33713,19.24037 -52.12292,0 l -0.15145,-35.71203 a 3.267081,3.267081 134.87851 0 1 3.26706,-3.28094 z" id="path3" sodipodi:nodetypes="ccccccccc" inkscape:path-effect="#path-effect3" inkscape:original-d="m 302.78256,110.09974 h 14.58516 v 35.03429 c -0.15471,10.20675 23.32648,9.41652 23.4143,0 v -34.5382 h 14.28882 v 38.49688 c 1.3e-4,19.90557 -52.33713,19.24037 -52.12292,0 z"/><path style="fill:#fefffe;fill-opacity:1;stroke:none;stroke-width:0.264583;stroke-opacity:1" d="m 362.12479,110.5694 h 11.82825 a 4.2003328,4.2003328 29.493796 0 1 3.59992,2.03622 l 7.4965,12.47016 a 1.220897,1.220897 0.95328819 0 0 2.07125,0.0345 l 7.98996,-12.34164 a 4.8170563,4.8170563 151.45949 0 1 4.04363,-2.19921 h 10.21998 a 1.80488,1.80488 62.293729 0 1 1.48589,2.82944 l -14.16122,20.53748 a 4.3212353,4.3212353 89.009389 0 0 0.0869,5.02754 l 15.60115,21.03097 a 1.3855551,1.3855551 116.71566 0 1 -1.1128,2.21105 l -12.87259,0 a 3.782734,3.782734 29.588078 0 1 -3.24841,-1.84446 l -7.98368,-13.38008 a 1.1695371,1.1695371 179.6473 0 0 -2.01597,0.0124 l -7.7451,13.35109 a 3.7354546,3.7354546 150.05922 0 1 -3.23113,1.86104 h -11.65464 a 1.767803,1.767803 63.19931 0 1 -1.42292,-2.81682 l 14.98116,-20.32097 a 4.3404422,4.3404422 90.883906 0 0 0.0778,-5.04223 l -14.96913,-21.67405 a 1.1365343,1.1365343 117.6846 0 1 0.93517,-1.78241 z" id="path6" inkscape:path-effect="#path-effect12" inkscape:original-d="m 359.9586,110.5694 h 16.37027 l 9.7286,16.18317 10.47697,-16.18317 h 16.27672 l -17.86697,25.91178 19.08304,25.7247 h -17.77344 l -10.10277,-16.93153 -9.82215,16.93153 h -17.30571 l 18.89596,-25.63115 z"/><path style="fill:#1e074b;fill-opacity:1;stroke:none;stroke-width:0.264583;stroke-dasharray:none;stroke-opacity:1" d="m 257.14193,122.08867 v 28.45924 c 7.56132,2.28422 14.50563,2.09766 19.09448,0 7.40365,-2.20817 8.41347,-24.19117 0,-28.90572 -6.12575,-2.24642 -12.2235,-1.52451 -19.09448,0.44648 z" id="Interior" sodipodi:nodetypes="ccccc"/></g></svg>
